<svg width="513" height="334" viewBox="0 0 513 334" fill="none" xmlns="http://www.w3.org/2000/svg">
<circle cx="161.5" cy="254.5" r="31.5" stroke="#3B82F6" stroke-width="14"/>
<path d="M470.987 262C474.853 262.007 477.993 258.879 478 255.013C478.007 251.147 474.879 248.007 471.013 248L470.987 262ZM194 254.5L193.987 261.5L470.987 262L471 255L471.013 248L194.013 247.5L194 254.5Z" fill="#3B82F6"/>
<path d="M59 254L59 127" stroke="#3B82F6" stroke-width="14" stroke-linecap="round"/>
<path d="M59 126.836L102 78" stroke="#3B82F6" stroke-width="14" stroke-linecap="round"/>
<path d="M59 247.5C55.134 247.5 52 250.634 52 254.5C52 258.366 55.134 261.5 59 261.5L59 247.5ZM59 254.5L59 261.5L128 261.5L128 254.5L128 247.5L59 247.5L59 254.5Z" fill="#3B82F6"/>
<path d="M103.321 195V122.273H132.44C137.791 122.273 142.253 123.066 145.828 124.652C149.403 126.238 152.09 128.44 153.889 131.257C155.688 134.051 156.588 137.27 156.588 140.916C156.588 143.757 156.02 146.255 154.884 148.409C153.747 150.54 152.185 152.292 150.196 153.665C148.231 155.014 145.982 155.973 143.449 156.541V157.251C146.219 157.37 148.811 158.151 151.226 159.595C153.664 161.039 155.641 163.063 157.156 165.668C158.671 168.248 159.429 171.326 159.429 174.901C159.429 178.759 158.47 182.204 156.553 185.234C154.659 188.241 151.853 190.62 148.136 192.372C144.42 194.124 139.839 195 134.393 195H103.321ZM118.697 182.429H131.233C135.518 182.429 138.643 181.612 140.608 179.979C142.573 178.321 143.555 176.12 143.555 173.374C143.555 171.361 143.07 169.586 142.099 168.047C141.129 166.508 139.744 165.301 137.945 164.425C136.169 163.549 134.05 163.111 131.588 163.111H118.697V182.429ZM118.697 152.706H130.097C132.204 152.706 134.074 152.339 135.707 151.605C137.365 150.848 138.667 149.782 139.614 148.409C140.584 147.036 141.07 145.391 141.07 143.473C141.07 140.845 140.134 138.726 138.264 137.116C136.418 135.507 133.79 134.702 130.381 134.702H118.697V152.706ZM214.356 122.273H229.733V169.503C229.733 174.806 228.466 179.446 225.933 183.423C223.423 187.401 219.908 190.502 215.386 192.727C210.864 194.929 205.597 196.03 199.583 196.03C193.547 196.03 188.267 194.929 183.745 192.727C179.224 190.502 175.708 187.401 173.199 183.423C170.689 179.446 169.434 174.806 169.434 169.503V122.273H184.811V168.189C184.811 170.959 185.414 173.421 186.622 175.575C187.853 177.73 189.581 179.422 191.806 180.653C194.032 181.884 196.624 182.5 199.583 182.5C202.566 182.5 205.159 181.884 207.36 180.653C209.586 179.422 211.302 177.73 212.51 175.575C213.741 173.421 214.356 170.959 214.356 168.189V122.273ZM281.837 143.189C281.553 140.324 280.333 138.099 278.179 136.513C276.025 134.927 273.101 134.134 269.408 134.134C266.898 134.134 264.779 134.489 263.051 135.199C261.323 135.885 259.997 136.844 259.074 138.075C258.174 139.306 257.724 140.703 257.724 142.266C257.677 143.568 257.949 144.704 258.541 145.675C259.157 146.645 259.997 147.486 261.062 148.196C262.128 148.883 263.359 149.486 264.756 150.007C266.152 150.504 267.644 150.93 269.23 151.286L275.764 152.848C278.937 153.558 281.848 154.505 284.5 155.689C287.152 156.873 289.448 158.329 291.389 160.057C293.33 161.785 294.834 163.821 295.899 166.165C296.988 168.509 297.545 171.196 297.568 174.226C297.545 178.677 296.408 182.536 294.159 185.803C291.934 189.046 288.714 191.567 284.5 193.366C280.31 195.142 275.255 196.03 269.337 196.03C263.465 196.03 258.352 195.13 253.996 193.331C249.663 191.532 246.278 188.868 243.839 185.341C241.425 181.79 240.158 177.398 240.04 172.166H254.919C255.085 174.605 255.783 176.641 257.014 178.274C258.269 179.884 259.938 181.103 262.021 181.932C264.128 182.737 266.508 183.139 269.159 183.139C271.763 183.139 274.024 182.76 275.942 182.003C277.883 181.245 279.386 180.192 280.452 178.842C281.517 177.493 282.05 175.942 282.05 174.19C282.05 172.557 281.564 171.184 280.594 170.071C279.647 168.958 278.25 168.011 276.403 167.23C274.58 166.449 272.343 165.739 269.692 165.099L261.773 163.111C255.641 161.619 250.8 159.287 247.249 156.115C243.697 152.943 241.934 148.67 241.957 143.295C241.934 138.892 243.106 135.045 245.473 131.754C247.864 128.464 251.143 125.895 255.31 124.048C259.476 122.202 264.211 121.278 269.514 121.278C274.912 121.278 279.623 122.202 283.648 124.048C287.696 125.895 290.845 128.464 293.094 131.754C295.343 135.045 296.503 138.857 296.574 143.189H281.837Z" fill="#3B82F6"/>
<path d="M318.786 195H302.309L327.415 122.273H347.231L372.302 195H355.825L337.607 138.892H337.039L318.786 195ZM317.756 166.413H356.677V178.416H317.756V166.413ZM441.886 122.273V195H428.605L396.964 149.226H396.432V195H381.055V122.273H394.55L425.942 168.011H426.581V122.273H441.886Z" fill="#F67F1E"/>
<path d="M474.5 244L485.325 265H463.675L474.5 244Z" fill="white"/>
<path d="M102 71C98.134 71 95 74.134 95 78C95 81.866 98.134 85 102 85L102 71ZM102 78L102 85L278 85L278 78L278 71L102 71L102 78Z" fill="#3B82F6"/>
<path d="M278.5 67L289.325 88H267.675L278.5 67Z" fill="white"/>
</svg>
